<svg id="visual" viewBox="0 0 900 600" width="900" height="600" xmlns="http://www.w3.org/2000/svg" xmlns:xlink="http://www.w3.org/1999/xlink" version="1.1"><path d="M0 157L13.7 151C27.3 145 54.7 133 82 134C109.3 135 136.7 149 163.8 171C191 193 218 223 245.2 230C272.3 237 299.7 221 327 215C354.3 209 381.7 213 409 217C436.3 221 463.7 225 491 221C518.3 217 545.7 205 573 191C600.3 177 627.7 161 654.8 148C682 135 709 125 736.2 128C763.3 131 790.7 147 818 153C845.3 159 872.7 155 886.3 153L900 151L900 0L886.3 0C872.7 0 845.3 0 818 0C790.7 0 763.3 0 736.2 0C709 0 682 0 654.8 0C627.7 0 600.3 0 573 0C545.7 0 518.3 0 491 0C463.7 0 436.3 0 409 0C381.7 0 354.3 0 327 0C299.7 0 272.3 0 245.2 0C218 0 191 0 163.8 0C136.7 0 109.3 0 82 0C54.7 0 27.3 0 13.7 0L0 0Z" fill="#6198ff"></path><path d="M0 307L13.7 287C27.3 267 54.7 227 82 223C109.3 219 136.7 251 163.8 273C191 295 218 307 245.2 317C272.3 327 299.7 335 327 329C354.3 323 381.7 303 409 297C436.3 291 463.7 299 491 299C518.3 299 545.7 291 573 291C600.3 291 627.7 299 654.8 281C682 263 709 219 736.2 224C763.3 229 790.7 283 818 290C845.3 297 872.7 257 886.3 237L900 217L900 149L886.3 151C872.7 153 845.3 157 818 151C790.7 145 763.3 129 736.2 126C709 123 682 133 654.8 146C627.7 159 600.3 175 573 189C545.7 203 518.3 215 491 219C463.7 223 436.3 219 409 215C381.7 211 354.3 207 327 213C299.7 219 272.3 235 245.2 228C218 221 191 191 163.8 169C136.7 147 109.3 133 82 132C54.7 131 27.3 143 13.7 149L0 155Z" fill="#3c80ff"></path><path d="M0 349L13.7 328C27.3 307 54.7 265 82 266C109.3 267 136.7 311 163.8 341C191 371 218 387 245.2 393C272.3 399 299.7 395 327 391C354.3 387 381.7 383 409 377C436.3 371 463.7 363 491 360C518.3 357 545.7 359 573 359C600.3 359 627.7 357 654.8 342C682 327 709 299 736.2 305C763.3 311 790.7 351 818 359C845.3 367 872.7 343 886.3 331L900 319L900 215L886.3 235C872.7 255 845.3 295 818 288C790.7 281 763.3 227 736.2 222C709 217 682 261 654.8 279C627.7 297 600.3 289 573 289C545.7 289 518.3 297 491 297C463.7 297 436.3 289 409 295C381.7 301 354.3 321 327 327C299.7 333 272.3 325 245.2 315C218 305 191 293 163.8 271C136.7 249 109.3 217 82 221C54.7 225 27.3 265 13.7 285L0 305Z" fill="#0066ff"></path><path d="M0 469L13.7 484C27.3 499 54.7 529 82 531C109.3 533 136.7 507 163.8 504C191 501 218 521 245.2 531C272.3 541 299.7 541 327 536C354.3 531 381.7 521 409 519C436.3 517 463.7 523 491 522C518.3 521 545.7 513 573 518C600.3 523 627.7 541 654.8 543C682 545 709 531 736.2 531C763.3 531 790.7 545 818 550C845.3 555 872.7 551 886.3 549L900 547L900 317L886.3 329C872.7 341 845.3 365 818 357C790.7 349 763.3 309 736.2 303C709 297 682 325 654.8 340C627.7 355 600.3 357 573 357C545.7 357 518.3 355 491 358C463.7 361 436.3 369 409 375C381.7 381 354.3 385 327 389C299.7 393 272.3 397 245.2 391C218 385 191 369 163.8 339C136.7 309 109.3 265 82 264C54.7 263 27.3 305 13.7 326L0 347Z" fill="#0059dd"></path><path d="M0 601L13.7 601C27.3 601 54.7 601 82 601C109.3 601 136.7 601 163.8 601C191 601 218 601 245.2 601C272.3 601 299.7 601 327 601C354.3 601 381.7 601 409 601C436.3 601 463.7 601 491 601C518.3 601 545.7 601 573 601C600.3 601 627.7 601 654.8 601C682 601 709 601 736.2 601C763.3 601 790.7 601 818 601C845.3 601 872.7 601 886.3 601L900 601L900 545L886.3 547C872.7 549 845.3 553 818 548C790.7 543 763.3 529 736.2 529C709 529 682 543 654.8 541C627.7 539 600.3 521 573 516C545.7 511 518.3 519 491 520C463.7 521 436.3 515 409 517C381.7 519 354.3 529 327 534C299.7 539 272.3 539 245.2 529C218 519 191 499 163.8 502C136.7 505 109.3 531 82 529C54.7 527 27.3 497 13.7 482L0 467Z" fill="#004cbb"></path></svg>