<svg xmlns="http://www.w3.org/2000/svg" xmlns:xlink="http://www.w3.org/1999/xlink" id="visual" version="1.1" viewBox="0 0 900 196"><path d="M0 196L21.5 189.3C43 182.7 86 169.3 128.8 159.3C171.7 149.3 214.3 142.7 257.2 147.2C300 151.7 343 167.3 385.8 173.2C428.7 179 471.3 175 514.2 168.8C557 162.7 600 154.3 642.8 156.3C685.7 158.3 728.3 170.7 771.2 167.7C814 164.7 857 146.3 878.5 137.2L900 128L900 0L878.5 0C857 0 814 0 771.2 0C728.3 0 685.7 0 642.8 0C600 0 557 0 514.2 0C471.3 0 428.7 0 385.8 0C343 0 300 0 257.2 0C214.3 0 171.7 0 128.8 0C86 0 43 0 21.5 0L0 0Z" fill="#fa7268"/><path d="M0 147L21.5 147.2C43 147.3 86 147.7 128.8 140C171.7 132.3 214.3 116.7 257.2 116.5C300 116.3 343 131.7 385.8 131C428.7 130.3 471.3 113.7 514.2 112C557 110.3 600 123.7 642.8 130.5C685.7 137.3 728.3 137.7 771.2 135C814 132.3 857 126.7 878.5 123.8L900 121L900 0L878.5 0C857 0 814 0 771.2 0C728.3 0 685.7 0 642.8 0C600 0 557 0 514.2 0C471.3 0 428.7 0 385.8 0C343 0 300 0 257.2 0C214.3 0 171.7 0 128.8 0C86 0 43 0 21.5 0L0 0Z" fill="#ef5f67"/><path d="M0 107L21.5 110C43 113 86 119 128.8 121.5C171.7 124 214.3 123 257.2 121.5C300 120 343 118 385.8 112.5C428.7 107 471.3 98 514.2 90.3C557 82.7 600 76.3 642.8 78.3C685.7 80.3 728.3 90.7 771.2 99.3C814 108 857 115 878.5 118.5L900 122L900 0L878.5 0C857 0 814 0 771.2 0C728.3 0 685.7 0 642.8 0C600 0 557 0 514.2 0C471.3 0 428.7 0 385.8 0C343 0 300 0 257.2 0C214.3 0 171.7 0 128.8 0C86 0 43 0 21.5 0L0 0Z" fill="#e34c67"/><path d="M0 81L21.5 77.2C43 73.3 86 65.7 128.8 64.5C171.7 63.3 214.3 68.7 257.2 69.7C300 70.7 343 67.3 385.8 63.8C428.7 60.3 471.3 56.7 514.2 56.2C557 55.7 600 58.3 642.8 57.2C685.7 56 728.3 51 771.2 49.8C814 48.7 857 51.3 878.5 52.7L900 54L900 0L878.5 0C857 0 814 0 771.2 0C728.3 0 685.7 0 642.8 0C600 0 557 0 514.2 0C471.3 0 428.7 0 385.8 0C343 0 300 0 257.2 0C214.3 0 171.7 0 128.8 0C86 0 43 0 21.5 0L0 0Z" fill="#d53867"/><path d="M0 46L21.5 46C43 46 86 46 128.8 46.8C171.7 47.7 214.3 49.3 257.2 49.5C300 49.7 343 48.3 385.8 49.3C428.7 50.3 471.3 53.7 514.2 50.2C557 46.7 600 36.3 642.8 34.8C685.7 33.3 728.3 40.7 771.2 43C814 45.3 857 42.7 878.5 41.3L900 40L900 0L878.5 0C857 0 814 0 771.2 0C728.3 0 685.7 0 642.8 0C600 0 557 0 514.2 0C471.3 0 428.7 0 385.8 0C343 0 300 0 257.2 0C214.3 0 171.7 0 128.8 0C86 0 43 0 21.5 0L0 0Z" fill="#c62368"/></svg>