<svg xmlns="http://www.w3.org/2000/svg" xmlns:xlink="http://www.w3.org/1999/xlink" id="visual" version="1.1" viewBox="0 0 900 65"><path d="M0 65L21.5 62.7C43 60.3 86 55.7 128.8 52.3C171.7 49 214.3 47 257.2 48.5C300 50 343 55 385.8 56.8C428.7 58.7 471.3 57.3 514.2 55.3C557 53.3 600 50.7 642.8 51.3C685.7 52 728.3 56 771.2 55C814 54 857 48 878.5 45L900 42L900 0L878.5 0C857 0 814 0 771.2 0C728.3 0 685.7 0 642.8 0C600 0 557 0 514.2 0C471.3 0 428.7 0 385.8 0C343 0 300 0 257.2 0C214.3 0 171.7 0 128.8 0C86 0 43 0 21.5 0L0 0Z" fill="#fa7268"/><path d="M0 48L21.5 48.2C43 48.3 86 48.7 128.8 46.2C171.7 43.7 214.3 38.3 257.2 38.2C300 38 343 43 385.8 42.8C428.7 42.7 471.3 37.3 514.2 36.8C557 36.3 600 40.7 642.8 42.8C685.7 45 728.3 45 771.2 44.2C814 43.3 857 41.7 878.5 40.8L900 40L900 0L878.5 0C857 0 814 0 771.2 0C728.3 0 685.7 0 642.8 0C600 0 557 0 514.2 0C471.3 0 428.7 0 385.8 0C343 0 300 0 257.2 0C214.3 0 171.7 0 128.8 0C86 0 43 0 21.5 0L0 0Z" fill="#ef5f67"/><path d="M0 35L21.5 36C43 37 86 39 128.8 39.8C171.7 40.7 214.3 40.3 257.2 39.8C300 39.3 343 38.7 385.8 36.8C428.7 35 471.3 32 514.2 29.5C557 27 600 25 642.8 25.7C685.7 26.3 728.3 29.7 771.2 32.5C814 35.3 857 37.7 878.5 38.8L900 40L900 0L878.5 0C857 0 814 0 771.2 0C728.3 0 685.7 0 642.8 0C600 0 557 0 514.2 0C471.3 0 428.7 0 385.8 0C343 0 300 0 257.2 0C214.3 0 171.7 0 128.8 0C86 0 43 0 21.5 0L0 0Z" fill="#e34c67"/><path d="M0 26L21.5 24.8C43 23.7 86 21.3 128.8 21C171.7 20.7 214.3 22.3 257.2 22.7C300 23 343 22 385.8 20.8C428.7 19.7 471.3 18.3 514.2 18.2C557 18 600 19 642.8 18.7C685.7 18.3 728.3 16.7 771.2 16.2C814 15.7 857 16.3 878.5 16.7L900 17L900 0L878.5 0C857 0 814 0 771.2 0C728.3 0 685.7 0 642.8 0C600 0 557 0 514.2 0C471.3 0 428.7 0 385.8 0C343 0 300 0 257.2 0C214.3 0 171.7 0 128.8 0C86 0 43 0 21.5 0L0 0Z" fill="#d53867"/><path d="M0 15L21.5 15C43 15 86 15 128.8 15.2C171.7 15.3 214.3 15.7 257.2 15.7C300 15.7 343 15.3 385.8 15.7C428.7 16 471.3 17 514.2 15.8C557 14.7 600 11.3 642.8 10.8C685.7 10.3 728.3 12.7 771.2 13.5C814 14.3 857 13.7 878.5 13.3L900 13L900 0L878.5 0C857 0 814 0 771.2 0C728.3 0 685.7 0 642.8 0C600 0 557 0 514.2 0C471.3 0 428.7 0 385.8 0C343 0 300 0 257.2 0C214.3 0 171.7 0 128.8 0C86 0 43 0 21.5 0L0 0Z" fill="#c62368"/></svg>