<svg id="visual" viewBox="0 0 900 200" width="900" height="200" xmlns="http://www.w3.org/2000/svg" xmlns:xlink="http://www.w3.org/1999/xlink" version="1.1"><path d="M0 133L21.5 135.3C43 137.7 86 142.3 128.8 145.7C171.7 149 214.3 151 257.2 149.5C300 148 343 143 385.8 141.2C428.7 139.3 471.3 140.7 514.2 142.7C557 144.7 600 147.3 642.8 146.7C685.7 146 728.3 142 771.2 143C814 144 857 150 878.5 153L900 156L900 201L878.5 201C857 201 814 201 771.2 201C728.3 201 685.7 201 642.8 201C600 201 557 201 514.2 201C471.3 201 428.7 201 385.8 201C343 201 300 201 257.2 201C214.3 201 171.7 201 128.8 201C86 201 43 201 21.5 201L0 201Z" fill="#fa7268"></path><path d="M0 150L21.5 149.8C43 149.7 86 149.3 128.8 151.8C171.7 154.3 214.3 159.7 257.2 159.8C300 160 343 155 385.8 155.2C428.7 155.3 471.3 160.7 514.2 161.2C557 161.7 600 157.3 642.8 155.2C685.7 153 728.3 153 771.2 153.8C814 154.7 857 156.3 878.5 157.2L900 158L900 201L878.5 201C857 201 814 201 771.2 201C728.3 201 685.7 201 642.8 201C600 201 557 201 514.2 201C471.3 201 428.7 201 385.8 201C343 201 300 201 257.2 201C214.3 201 171.7 201 128.8 201C86 201 43 201 21.5 201L0 201Z" fill="#ef5f67"></path><path d="M0 163L21.5 162C43 161 86 159 128.8 158.2C171.7 157.3 214.3 157.7 257.2 158.2C300 158.7 343 159.3 385.8 161.2C428.7 163 471.3 166 514.2 168.5C557 171 600 173 642.8 172.3C685.7 171.7 728.3 168.3 771.2 165.5C814 162.7 857 160.3 878.5 159.2L900 158L900 201L878.5 201C857 201 814 201 771.2 201C728.3 201 685.7 201 642.8 201C600 201 557 201 514.2 201C471.3 201 428.7 201 385.8 201C343 201 300 201 257.2 201C214.3 201 171.7 201 128.8 201C86 201 43 201 21.5 201L0 201Z" fill="#e34c67"></path><path d="M0 172L21.5 173.2C43 174.3 86 176.7 128.8 177C171.7 177.3 214.3 175.7 257.2 175.3C300 175 343 176 385.8 177.2C428.7 178.3 471.3 179.7 514.2 179.8C557 180 600 179 642.8 179.3C685.7 179.7 728.3 181.3 771.2 181.8C814 182.3 857 181.7 878.5 181.3L900 181L900 201L878.5 201C857 201 814 201 771.2 201C728.3 201 685.7 201 642.8 201C600 201 557 201 514.2 201C471.3 201 428.7 201 385.8 201C343 201 300 201 257.2 201C214.3 201 171.7 201 128.8 201C86 201 43 201 21.5 201L0 201Z" fill="#d53867"></path><path d="M0 183L21.5 183C43 183 86 183 128.8 182.8C171.7 182.7 214.3 182.3 257.2 182.3C300 182.3 343 182.7 385.8 182.3C428.7 182 471.3 181 514.2 182.2C557 183.3 600 186.7 642.8 187.2C685.7 187.7 728.3 185.3 771.2 184.5C814 183.7 857 184.3 878.5 184.7L900 185L900 201L878.5 201C857 201 814 201 771.2 201C728.3 201 685.7 201 642.8 201C600 201 557 201 514.2 201C471.3 201 428.7 201 385.8 201C343 201 300 201 257.2 201C214.3 201 171.7 201 128.8 201C86 201 43 201 21.5 201L0 201Z" fill="#c62368"></path></svg>