<svg xmlns="http://www.w3.org/2000/svg" xmlns:xlink="http://www.w3.org/1999/xlink" id="visual" version="1.1" viewBox="0 402 900 199"><path d="M0 402L21.5 408.7C43 415.3 86 428.7 128.8 438.7C171.7 448.7 214.3 455.3 257.2 450.8C300 446.3 343 430.7 385.8 424.8C428.7 419 471.3 423 514.2 429.2C557 435.3 600 443.7 642.8 441.7C685.7 439.7 728.3 427.3 771.2 430.3C814 433.3 857 451.7 878.5 460.8L900 470L900 601L878.5 601C857 601 814 601 771.2 601C728.3 601 685.7 601 642.8 601C600 601 557 601 514.2 601C471.3 601 428.7 601 385.8 601C343 601 300 601 257.2 601C214.3 601 171.7 601 128.8 601C86 601 43 601 21.5 601L0 601Z" fill="#fa7268"/><path d="M0 451L21.5 450.8C43 450.7 86 450.3 128.8 458C171.7 465.7 214.3 481.3 257.2 481.5C300 481.7 343 466.3 385.8 467C428.7 467.7 471.3 484.3 514.2 486C557 487.7 600 474.3 642.8 467.5C685.7 460.7 728.3 460.3 771.2 463C814 465.7 857 471.3 878.5 474.2L900 477L900 601L878.5 601C857 601 814 601 771.2 601C728.3 601 685.7 601 642.8 601C600 601 557 601 514.2 601C471.3 601 428.7 601 385.8 601C343 601 300 601 257.2 601C214.3 601 171.7 601 128.8 601C86 601 43 601 21.5 601L0 601Z" fill="#ef5f67"/><path d="M0 491L21.5 488C43 485 86 479 128.8 476.5C171.7 474 214.3 475 257.2 476.5C300 478 343 480 385.8 485.5C428.7 491 471.3 500 514.2 507.7C557 515.3 600 521.7 642.8 519.7C685.7 517.7 728.3 507.3 771.2 498.7C814 490 857 483 878.5 479.5L900 476L900 601L878.5 601C857 601 814 601 771.2 601C728.3 601 685.7 601 642.8 601C600 601 557 601 514.2 601C471.3 601 428.7 601 385.8 601C343 601 300 601 257.2 601C214.3 601 171.7 601 128.8 601C86 601 43 601 21.5 601L0 601Z" fill="#e34c67"/><path d="M0 517L21.5 520.8C43 524.7 86 532.3 128.8 533.5C171.7 534.7 214.3 529.3 257.2 528.3C300 527.3 343 530.7 385.8 534.2C428.7 537.7 471.3 541.3 514.2 541.8C557 542.3 600 539.7 642.8 540.8C685.7 542 728.3 547 771.2 548.2C814 549.3 857 546.7 878.5 545.3L900 544L900 601L878.5 601C857 601 814 601 771.2 601C728.3 601 685.7 601 642.8 601C600 601 557 601 514.2 601C471.3 601 428.7 601 385.8 601C343 601 300 601 257.2 601C214.3 601 171.7 601 128.8 601C86 601 43 601 21.5 601L0 601Z" fill="#d53867"/><path d="M0 552L21.5 552C43 552 86 552 128.8 551.2C171.7 550.3 214.3 548.7 257.2 548.5C300 548.3 343 549.7 385.8 548.7C428.7 547.7 471.3 544.3 514.2 547.8C557 551.3 600 561.7 642.8 563.2C685.7 564.7 728.3 557.3 771.2 555C814 552.7 857 555.3 878.5 556.7L900 558L900 601L878.5 601C857 601 814 601 771.2 601C728.3 601 685.7 601 642.8 601C600 601 557 601 514.2 601C471.3 601 428.7 601 385.8 601C343 601 300 601 257.2 601C214.3 601 171.7 601 128.8 601C86 601 43 601 21.5 601L0 601Z" fill="#c62368"/></svg>