<svg id="visual" viewBox="0 0 960 280" width="960" height="280" xmlns="http://www.w3.org/2000/svg" xmlns:xlink="http://www.w3.org/1999/xlink" version="1.1"><rect x="0" y="0" width="960" height="280" fill="#002233"></rect><path d="M0 53L22.8 60.3C45.7 67.7 91.3 82.3 137 87.5C182.7 92.7 228.3 88.3 274 78.8C319.7 69.3 365.3 54.7 411.2 56.2C457 57.7 503 75.3 548.8 76.8C594.7 78.3 640.3 63.7 686 59.8C731.7 56 777.3 63 823 67.3C868.7 71.7 914.3 73.3 937.2 74.2L960 75L960 0L937.2 0C914.3 0 868.7 0 823 0C777.3 0 731.7 0 686 0C640.3 0 594.7 0 548.8 0C503 0 457 0 411.2 0C365.3 0 319.7 0 274 0C228.3 0 182.7 0 137 0C91.3 0 45.7 0 22.8 0L0 0Z" fill="#0066FF" stroke-linecap="round" stroke-linejoin="miter"></path></svg>