<svg id="visual" viewBox="0 0 900 600" width="900" height="600" xmlns="http://www.w3.org/2000/svg" xmlns:xlink="http://www.w3.org/1999/xlink" version="1.1"><rect x="0" y="0" width="900" height="600" fill="#002233"></rect><path d="M0 114L21.5 129.7C43 145.3 86 176.7 128.8 188C171.7 199.3 214.3 190.7 257.2 170.5C300 150.3 343 118.7 385.8 121.8C428.7 125 471.3 163 514.2 166.3C557 169.7 600 138.3 642.8 130.2C685.7 122 728.3 137 771.2 146.2C814 155.3 857 158.7 878.5 160.3L900 162L900 0L878.5 0C857 0 814 0 771.2 0C728.3 0 685.7 0 642.8 0C600 0 557 0 514.2 0C471.3 0 428.7 0 385.8 0C343 0 300 0 257.2 0C214.3 0 171.7 0 128.8 0C86 0 43 0 21.5 0L0 0Z" fill="#0066FF" stroke-linecap="round" stroke-linejoin="miter"></path></svg>